<svg xmlns="http://www.w3.org/2000/svg" 
     viewBox="0 0 100 100" 
     width="100" 
     height="100" 
     fill="none" 
     stroke-linecap="round" 
     stroke-linejoin="round">
  
  <style>
    /* El color de línea principal (un verde profesional para el medio ambiente) */
    .stroke-main {
      stroke: #3A8D40; 
      stroke-width: 4.5;
      fill: none;
    }
    /* El color de advertencia (para mercurio/oro) */
    .fill-alert {
      fill: #FFD700; /* Dorado sutil para el oro/advertencia */
      stroke: #DAA520;
      stroke-width: 1.5;
    }
  </style>

  <g class="stroke-main" transform="translate(0, 10)">
    <path d="M 30 75 C 20 55, 30 35, 50 35 C 70 35, 80 55, 70 75" />
    
    <circle cx="70" cy="75" r="4" fill="#3A8D40" stroke="none"/>
    <path d="M 30 75 L 30 80" /> 
  </g>
  
  <path class="fill-alert" 
        d="M 45 40 L 55 40 L 58 45 L 50 50 L 42 45 Z" 
        transform="translate(10, -5)"/>
  
  <path class="fill-alert" 
        d="M 35 60 C 40 60, 40 65, 35 70 C 30 65, 30 60, 35 60 Z"
        fill="#808080" stroke="#555555"
        transform="translate(-5, 0)"/>

  <g class="stroke-main" stroke-width="2.5">
    <path d="M 50 10 C 25 15, 20 85, 50 90 C 80 85, 75 15, 50 10 Z" opacity="0.4" stroke-dasharray="5 5"/>
  </g>
  
</svg>
